<svg xmlns="http://www.w3.org/2000/svg" viewBox="0 0 400 400">
  <rect width="400" height="400" fill="#fff"/>
  <g fill="#000">
    <rect x="186" y="62" width="28" height="46" rx="14"/>
    <rect x="186" y="62" width="28" height="46" rx="14" transform="rotate(30 200 200)"/>
    <rect x="186" y="62" width="28" height="46" rx="14" transform="rotate(60 200 200)"/>
    <rect x="186" y="62" width="28" height="46" rx="14" transform="rotate(90 200 200)"/>
    <rect x="186" y="62" width="28" height="46" rx="14" transform="rotate(120 200 200)"/>
    <rect x="186" y="62" width="28" height="46" rx="14" transform="rotate(150 200 200)"/>
    <rect x="186" y="62" width="28" height="46" rx="14" transform="rotate(180 200 200)"/>
    <rect x="186" y="62" width="28" height="46" rx="14" transform="rotate(210 200 200)"/>
    <rect x="186" y="62" width="28" height="46" rx="14" transform="rotate(240 200 200)"/>
    <rect x="186" y="62" width="28" height="46" rx="14" transform="rotate(270 200 200)"/>
    <rect x="186" y="62" width="28" height="46" rx="14" transform="rotate(300 200 200)"/>
    <rect x="186" y="62" width="28" height="46" rx="14" transform="rotate(330 200 200)"/>
    <circle cx="200" cy="200" r="66"/>
  </g>
</svg>
